:SAMPLES-PER-SECOND 30
:FULLY-SPECIFIED
:DEGREES
372
root  4.07048 26.9713 -2.69865 -68.6868 74.685 36.6784
RightUpLeg  63.3695 47.2527 -51.91
RightLeg  68.8423 7.609 20.2176
RightFoot  -34.3603 1.37758 8.00486
RightToes  3.49245e-010 0 -3.6325e-017
Spine  -14.4559 13.9619 -20.5403
Spine1  148.564 -6.51657 17.6177
HEad  -29.0488 2.82076 -11.0729
LeftShoulder1  -0.459031 -0.45287 22.8974
LeftArm  -90.9318 -44.7582 10.9884
LeftForeArm  -22.6602 -37.8152 -9.91796
LeftHand  -0.36046 11.7806 -5.14867
RightShoulder  -0.371189 -0.115276 -22.4377
RightArm  -78.5952 28.4014 -6.55644
RightForeArm  -41.6726 36.7245 10.3074
RightHand  -0.155579 9.16264 -1.61931
LeftUpLeg  79.3744 -21.1072 28.2687
LeftLeg  67.4695 -6.65101 -16.4778
LeftFoot  -34.2151 -0.257325 -2.29341
LeftToes  -5.36635e-011 -6.70219e-011 5.24975e-011
373
root  4.84067 27.3217 -2.97319 -64.9553 76.5834 38.1345
RightUpLeg  61.7937 46.9949 -53.1146
RightLeg  69.2263 7.35727 19.9844
RightFoot  -27.282 1.44122 11.7149
RightToes  3.49245e-010 0 -3.6325e-017
Spine  -3.52274 13.7077 -16.758
Spine1  136.831 -2.74583 14.9915
HEad  -26.7584 2.4348 -10.3147
LeftShoulder1  -0.54503 -1.11546 23.1231
LeftArm  -90.3331 -44.0752 10.6334
LeftForeArm  -22.7436 -38.1942 -10.0459
LeftHand  -0.347499 12.1524 -4.61817
RightShoulder  -0.370198 -0.481598 -23.8875
RightArm  -78.6101 28.0509 -5.55533
RightForeArm  -42.6047 36.1964 10.1738
RightHand  -0.283692 10.1773 -2.52408
LeftUpLeg  78.5181 -20.4705 28.3287
LeftLeg  67.1636 -7.32871 -17.8107
LeftFoot  -34.2721 -0.203448 -2.02406
LeftToes  -5.36635e-011 -6.70219e-011 5.24975e-011
374
root  5.99451 27.8809 -3.2205 -64.6652 80.2828 36.2069
RightUpLeg  60.3763 45.7182 -56.4978
RightLeg  68.9152 6.60986 17.7182
RightFoot  -15.0258 0.35161 10.2627
RightToes  3.49245e-010 0 -3.6325e-017
Spine  5.07357 12.3259 -16.8278
Spine1  127.066 -1.14348 13.4895
HEad  -24.6255 2.33436 -9.31286
LeftShoulder1  -0.520816 -0.805978 23.4154
LeftArm  -90.7051 -43.224 10.4508
LeftForeArm  -22.5726 -38.5955 -10.1699
LeftHand  -0.366452 12.1914 -4.91251
RightShoulder  -0.360825 -0.414379 -23.2241
RightArm  -80.3073 28.9986 -7.97034
RightForeArm  -42.1014 34.2151 9.54263
RightHand  -0.273742 10.2708 -2.43268
LeftUpLeg  78.1941 -21.4936 27.5536
LeftLeg  65.7612 -8.65242 -19.5846
LeftFoot  -34.4831 -0.0599189 -1.31129
LeftToes  -5.36635e-011 -6.70219e-011 5.24975e-011
375
root  6.99322 28.3812 -3.9493 -68.7111 83.2754 32.6734
RightUpLeg  57.4328 45.7934 -60.514
RightLeg  68.8825 6.19367 16.5943
RightFoot  -2.08508 -0.245916 2.2485
RightToes  3.49245e-010 0 -3.6325e-017
Spine  11.1279 3.49886 -6.96815
Spine1  124.237 6.04985 2.14587
HEad  -23.629 2.01038 -9.17494
LeftShoulder1  -0.3978 0.0166312 22.6901
LeftArm  -92.0684 -42.5913 11.2685
LeftForeArm  -21.531 -38.7786 -10.1827
LeftHand  -0.433699 11.4978 -6.73421
RightShoulder  -0.443975 -0.207623 -25.2905
RightArm  -81.2477 28.1667 -7.68846
RightForeArm  -42.7219 33.86 9.45818
RightHand  -0.294769 10.4438 -2.56356
LeftUpLeg  81.5413 -21.4952 24.1805
LeftLeg  63.7716 -8.84249 -18.2833
LeftFoot  -35.1553 -0.072578 -1.35069
LeftToes  -5.36635e-011 -6.70219e-011 5.24975e-011
376
root  7.35189 28.7732 -4.78692 -90.7204 85.9073 12.4355
RightUpLeg  57.1669 44.4423 -61.1754
RightLeg  68.9384 8.76609 23.1299
RightFoot  -0.756658 0.297118 -3.48818
RightToes  3.49245e-010 0 -3.6325e-017
Spine  9.1612 -7.95707 4.60183
Spine1  127.244 13.6911 -10.8837
HEad  -23.4849 1.85817 -8.65846
LeftShoulder1  -0.336597 0.529272 22.6425
LeftArm  -94.0588 -41.0913 11.1006
LeftForeArm  -20.8263 -39.6842 -10.4535
LeftHand  -0.419506 11.33 -6.69472
RightShoulder  -0.494094 0.0560916 -25.6912
RightArm  -82.8424 27.7012 -9.63348
RightForeArm  -43.1626 33.3824 9.33008
RightHand  -0.213201 9.86673 -2.02635
LeftUpLeg  84.8688 -20.9229 19.1267
LeftLeg  62.6308 -7.45142 -14.6851
LeftFoot  -35.4883 -0.228628 -2.07428
LeftToes  -5.36635e-011 -6.70219e-011 5.24975e-011
377
root  6.97581 29.0156 -5.6615 -133.493 86.5948 -27.6574
RightUpLeg  57.3639 40.5883 -60.6305
RightLeg  68.8586 11.4012 29.19
RightFoot  -5.2174 0.123656 -2.54574
RightToes  3.49245e-010 0 -3.6325e-017
Spine  -4.74894 -23.2333 27.2726
Spine1  130.798 28.0706 -32.1704
HEad  -22.4258 1.77331 -7.87037
LeftShoulder1  -0.398425 -0.324785 21.4842
LeftArm  -96.178 -39.4936 11.8695
LeftForeArm  -21.1952 -40.144 -10.6328
LeftHand  -0.356146 11.9968 -4.88005
RightShoulder  -0.623852 0.599653 -27.1936
RightArm  -83.6305 26.5124 -9.60934
RightForeArm  -43.239 34.152 9.55829
RightHand  -0.28173 10.3521 -2.5066
LeftUpLeg  87.342 -19.5696 13.3801
LeftLeg  62.97 -4.80617 -9.52354
LeftFoot  -35.16 -0.510159 -3.42803
LeftToes  -5.36635e-011 -6.70219e-011 5.24975e-011
